<svg width="800" height="480" viewBox="0 0 800 480" fill="none" xmlns="http://www.w3.org/2000/svg">
  <rect width="800" height="480" rx="24" fill="#0F172A"/>
  <rect x="28" y="28" width="744" height="424" rx="20" fill="#111827" stroke="#334155" stroke-width="2"/>
  <rect x="52" y="52" width="168" height="24" rx="12" fill="#F43F5E"/>
  <rect x="52" y="92" width="260" height="16" rx="8" fill="#475569"/>
  <rect x="52" y="120" width="220" height="16" rx="8" fill="#334155"/>
  <rect x="52" y="164" width="220" height="140" rx="16" fill="#1E293B" stroke="#334155" stroke-width="2"/>
  <rect x="280" y="164" width="220" height="140" rx="16" fill="#1E293B" stroke="#334155" stroke-width="2"/>
  <rect x="508" y="164" width="240" height="140" rx="16" fill="#1E293B" stroke="#334155" stroke-width="2"/>
  <rect x="76" y="188" width="36" height="84" rx="8" fill="#F97316"/>
  <rect x="124" y="208" width="36" height="64" rx="8" fill="#FACC15"/>
  <rect x="172" y="176" width="36" height="96" rx="8" fill="#22C55E"/>
  <rect x="304" y="188" width="56" height="92" rx="10" fill="#38BDF8"/>
  <rect x="376" y="204" width="56" height="76" rx="10" fill="#818CF8"/>
  <rect x="532" y="188" width="80" height="20" rx="10" fill="#F43F5E"/>
  <rect x="532" y="220" width="136" height="12" rx="6" fill="#475569"/>
  <rect x="532" y="242" width="108" height="12" rx="6" fill="#334155"/>
  <rect x="532" y="268" width="124" height="12" rx="6" fill="#475569"/>
  <rect x="52" y="332" width="696" height="92" rx="18" fill="#111827" stroke="#334155" stroke-width="2"/>
  <rect x="74" y="360" width="120" height="12" rx="6" fill="#F43F5E"/>
  <rect x="74" y="384" width="176" height="10" rx="5" fill="#475569"/>
  <rect x="298" y="360" width="120" height="12" rx="6" fill="#22C55E"/>
  <rect x="298" y="384" width="160" height="10" rx="5" fill="#475569"/>
  <rect x="548" y="360" width="120" height="12" rx="6" fill="#38BDF8"/>
  <rect x="548" y="384" width="148" height="10" rx="5" fill="#475569"/>
</svg>
